<svg width="20" height="20" viewBox="0 0 20 20" fill="none" xmlns="http://www.w3.org/2000/svg">
<path d="M9.21953 7.86H7.81953V9.57H9.21953V7.86Z" fill="#FFF"/>
<path d="M10.6695 7.86H9.26953V9.57H10.6695V7.86Z" fill="#FFF"/>
<path d="M12.1195 7.86H10.7195V9.57H12.1195V7.86Z" fill="#FFF"/>
<path d="M4.35953 10.64L6.64953 11.31C6.70953 11.33 6.77953 11.34 6.83953 11.34C6.98953 11.34 7.13953 11.29 7.25953 11.2C7.43953 11.07 7.53953 10.86 7.53953 10.64V6.97H6.13953V9.71L4.81953 9.33C4.81953 9.33 4.25953 9.07 4.08953 7.66H4.97953V6.26H3.29953C3.09953 6.26 2.90953 6.35 2.77953 6.5C2.64953 6.65 2.58953 6.85 2.60953 7.05L2.70953 7.83C2.94953 9.84 3.88953 10.44 4.34953 10.64H4.35953Z" fill="#FFF"/>
<path d="M13.0895 11.33C13.1595 11.33 13.2195 11.33 13.2795 11.3L15.6495 10.61C16.0395 10.44 16.9695 9.84 17.2195 7.84L17.3195 7.06C17.3395 6.86 17.2795 6.66 17.1495 6.51C17.0195 6.36 16.8295 6.27 16.6295 6.27H14.9495V7.67H15.8395C15.6795 9.01 15.1595 9.31 15.1895 9.31L13.7995 9.72V6.98H12.3995V10.65C12.3995 10.87 12.4995 11.08 12.6795 11.21C12.7995 11.3 12.9495 11.35 13.0995 11.35L13.0895 11.33Z" fill="#FFF"/>
<path d="M18.6095 9.91C18.7195 9.58 18.8095 9.21 18.8795 8.79L19.1195 7.3C19.1495 7.18 19.4195 6.08 18.8195 5.31C18.5895 5.01 18.1495 4.66 17.3395 4.66H15.4595H15.4795L14.7495 3.55L15.2395 2.6H15.6995C16.0095 3.07 16.5395 3.38 17.1495 3.38C18.0995 3.38 18.8795 2.62 18.8795 1.69C18.8795 0.76 18.1095 0 17.1495 0C16.3695 0 15.7095 0.51 15.4995 1.21H14.8095C14.5495 1.21 14.3095 1.36 14.1895 1.59L13.8595 2.23L13.4395 1.6C13.3095 1.41 13.0895 1.29 12.8595 1.29H7.13953C6.90953 1.29 6.68953 1.41 6.55953 1.6L6.14953 2.21L5.82953 1.6C5.70953 1.37 5.46953 1.22 5.20953 1.22H4.51953C4.30953 0.52 3.64953 0 2.86953 0C1.91953 0 1.13953 0.77 1.13953 1.7C1.13953 2.63 1.90953 3.39 2.86953 3.39C3.47953 3.39 4.00953 3.08 4.31953 2.61H4.77953L5.25953 3.53L4.50953 4.65H4.52953L2.60953 4.66C1.79953 4.66 1.35953 5.02 1.12953 5.31C0.539531 6.08 0.799531 7.18 0.819531 7.24L1.07953 8.79C1.14953 9.21 1.23953 9.58 1.34953 9.91C0.609531 9.91 0.0195312 10.51 0.0195312 11.24V18.66C0.0195312 19.39 0.619531 19.99 1.34953 19.99H3.51953C4.25953 19.99 4.84953 19.39 4.84953 18.66V16.86L7.33953 15.19L7.45953 15.51C7.55953 15.78 7.81953 15.96 8.10953 15.96H11.8395C12.1295 15.96 12.3895 15.78 12.4895 15.51L12.6095 15.19L15.0895 16.85V18.66C15.0995 19.39 15.6995 19.99 16.4395 19.99H18.6095C19.3495 19.99 19.9395 19.39 19.9395 18.66V11.24C19.9395 10.51 19.3395 9.91 18.6095 9.91ZM17.1395 1.4C17.3195 1.4 17.4695 1.53 17.4695 1.7C17.4695 1.87 17.3195 2 17.1395 2C16.9595 2 16.8095 1.87 16.8095 1.7C16.8095 1.53 16.9595 1.4 17.1395 1.4ZM2.86953 2C2.68953 2 2.53953 1.87 2.53953 1.7C2.53953 1.53 2.68953 1.4 2.86953 1.4C3.04953 1.4 3.19953 1.53 3.19953 1.7C3.19953 1.87 3.04953 2 2.86953 2ZM2.21953 6.17C2.28953 6.08 2.45953 6.06 2.59953 6.06H7.78953V4.66H6.17953L7.49953 2.68H12.4795L13.7995 4.66H9.60953V6.06H17.3395C17.4695 6.06 17.6495 6.08 17.7195 6.17C17.8395 6.33 17.8295 6.73 17.7595 7.02L17.4995 8.58C17.1195 11 15.6595 11.42 15.6095 11.44L9.97953 12.83L4.34953 11.44C4.28953 11.42 2.82953 11 2.44953 8.58L2.17953 6.97C2.11953 6.74 2.10953 6.34 2.22953 6.18L2.21953 6.17ZM1.38953 18.67L1.32953 11.31H1.97953V11.24C2.46953 11.96 3.03953 12.36 3.44953 12.57L3.49953 18.61L1.38953 18.67ZM4.83953 15.19V12.99L6.67953 13.44L6.82953 13.85L4.83953 15.18V15.19ZM8.58953 14.57L8.31953 13.85L9.79953 14.22C9.84953 14.23 9.90953 14.24 9.96953 14.24C10.0295 14.24 10.0795 14.24 10.1395 14.22L11.6195 13.85L11.3495 14.57H8.58953ZM13.1095 13.85L13.2595 13.44L15.0595 13V15.17L13.1095 13.85ZM16.4995 18.66L16.4595 12.57C16.8695 12.36 17.4595 11.96 17.9695 11.23V11.3L18.5495 11.24L18.6095 18.6L16.4995 18.66Z" fill="#FFF"/>
</svg>
