<svg width="21" height="20" viewBox="0 0 21 20" fill="none" xmlns="http://www.w3.org/2000/svg">
<path d="M5.28957 12.5098C5.21957 12.2298 4.97957 12.0298 4.68957 11.9998L2.87957 11.8098C2.64957 11.7898 2.41957 11.8798 2.27957 12.0498C2.12957 12.2298 2.07957 12.4598 2.13957 12.6898L2.47957 13.9498C2.55957 14.2398 2.80957 14.4398 3.09957 14.4598L4.88957 14.5798C4.88957 14.5798 4.91957 14.5798 4.93957 14.5798C5.14957 14.5798 5.34957 14.4898 5.47957 14.3198C5.61957 14.1498 5.66957 13.9098 5.60957 13.6998L5.28957 12.5098Z" fill="#FFF"/>
<path d="M20.1596 11.5298C19.9996 11.1398 19.7696 10.7998 19.5096 10.5298C18.9896 9.99982 18.4696 9.80982 18.1196 9.73982C17.7996 9.67982 17.5196 9.69982 17.2696 9.73982C16.5696 8.36982 15.8196 6.91982 15.6596 6.67982C15.5396 6.48982 15.3996 6.34982 15.3796 6.32982C15.2396 6.18982 15.0696 6.07982 14.8896 5.98982C14.4296 5.76982 13.9296 5.76982 13.7896 5.75982C13.6596 5.75982 13.4596 5.75982 13.1896 5.75982L13.9496 4.20982L14.7396 3.82982L17.9796 5.16982C18.2696 5.27982 18.6096 5.18982 18.7996 4.93982L20.1296 3.13982C20.2696 2.93982 20.3096 2.68982 20.2196 2.45982C20.1296 2.22982 19.9296 2.06982 19.6896 2.02982L16.3796 1.47982C16.2096 1.44982 16.0396 1.47982 15.8896 1.57982L15.3996 1.89982L15.7996 0.989824C15.9296 0.699824 15.8396 0.359824 15.5896 0.159824C15.3396 -0.0401758 14.9896 -0.0401758 14.7396 0.159824L13.6596 0.989824C13.4896 1.11982 13.3896 1.30982 13.3896 1.51982C13.3896 1.72982 13.4696 1.92982 13.6296 2.06982L14.1496 2.51982C14.1496 2.51982 14.1796 2.52982 14.1896 2.53982L13.1396 3.04982C12.9996 3.11982 12.8896 3.22982 12.8196 3.36982L11.6596 5.72982C11.2496 5.72982 10.7896 5.71982 10.2596 5.70982L8.87957 5.72982L7.71957 3.35982C7.64957 3.21982 7.53957 3.10982 7.39957 3.03982L6.33957 2.52982C6.33957 2.52982 6.36957 2.51982 6.37957 2.50982L6.89957 2.05982C7.05957 1.91982 7.14957 1.71982 7.13957 1.50982C7.13957 1.29982 7.02957 1.09982 6.86957 0.979824L5.78957 0.149824C5.53957 -0.0401758 5.18957 -0.0401758 4.93957 0.149824C4.68957 0.349824 4.59957 0.689824 4.72957 0.979824L5.12957 1.88982L4.63957 1.57982C4.49957 1.48982 4.31957 1.44982 4.14957 1.47982L0.839567 2.02982C0.599567 2.06982 0.399567 2.22982 0.309567 2.45982C0.219567 2.68982 0.249567 2.93982 0.399567 3.13982L1.72957 4.93982C1.91957 5.18982 2.25957 5.28982 2.54957 5.16982L4.52957 4.37982L5.79957 3.81982L6.58957 4.19982L7.34957 5.75982C7.04957 5.75982 6.81957 5.75982 6.65957 5.75982C6.52957 5.75982 6.04957 5.75982 5.57957 5.98982C5.37957 6.08982 5.20957 6.20982 5.06957 6.34982C5.04957 6.36982 4.91957 6.49982 4.80957 6.66982C4.65957 6.90982 3.91957 8.31982 3.17957 9.70982C2.94957 9.67982 2.71957 9.66982 2.48957 9.70982C2.05957 9.76982 1.64957 9.94982 1.25957 10.2498C0.839567 10.5898 0.519567 10.9998 0.299567 11.4698C-0.160433 12.4998 0.0595673 13.4798 0.279567 14.4298C0.279567 14.4498 0.289567 14.4698 0.299567 14.4798C0.299567 14.5198 0.279567 14.5598 0.279567 14.5998L0.249567 17.5698C0.249567 18.9098 1.45957 19.9898 2.93957 19.9898C4.00957 19.9898 4.93957 19.2398 5.37957 18.4998C5.47957 18.3298 5.54957 18.1698 5.58957 18.0298L15.0396 18.0698C15.0796 18.1898 15.1296 18.3098 15.2096 18.4398C15.6496 19.1898 16.5596 19.9498 17.6296 19.9698H17.6696C19.1296 19.9698 20.3296 18.9098 20.3496 17.5798L20.3696 14.6198C20.3696 14.5698 20.3596 14.5198 20.3496 14.4798C20.4996 13.8598 20.6996 12.6898 20.2096 11.5198L20.1596 11.5298ZM16.3996 2.89982L18.3196 3.21982L17.9896 3.66982L16.2796 2.97982L16.3996 2.89982ZM2.49957 3.64982L2.16957 3.19982L4.08957 2.87982L4.20957 2.95982L2.49957 3.64982ZM5.95957 7.39982C5.95957 7.39982 6.00957 7.32982 6.01957 7.31982C6.04957 7.28982 6.09957 7.25982 6.14957 7.22982C6.30957 7.14982 6.54957 7.13982 6.60957 7.13982C6.89957 7.13982 7.49957 7.13982 8.31957 7.12982H9.21957V7.42982H11.2196V7.11982C12.5996 7.13982 13.4396 7.14982 13.7896 7.14982C13.8596 7.14982 14.1096 7.15982 14.2796 7.23982C14.3296 7.25982 14.3696 7.28982 14.3996 7.31982C14.4096 7.32982 14.4496 7.36982 14.4696 7.40982C14.5596 7.54982 15.0596 8.49982 15.8596 10.0598C14.9396 10.1298 13.0596 10.1398 10.1596 10.1098C7.65957 10.0798 5.67957 10.0498 4.58957 9.97982C5.38957 8.45982 5.87957 7.54982 5.95957 7.41982V7.39982ZM2.89957 18.5898C2.18957 18.5898 1.60957 18.1298 1.60957 17.5698V17.4898L1.72957 17.6798C1.75957 17.7198 1.79957 17.7398 1.82957 17.7798C1.86957 17.8198 1.90957 17.8698 1.95957 17.8998C2.00957 17.9298 2.05957 17.9398 2.11957 17.9598C2.16957 17.9698 2.20957 17.9998 2.25957 18.0098C2.49957 18.0298 2.88957 18.0698 3.36957 18.0998C3.55957 18.1098 3.71957 18.1198 3.86957 18.1298C3.61957 18.3698 3.26957 18.5998 2.90957 18.5998L2.89957 18.5898ZM17.6096 18.5698C17.2396 18.5698 16.8796 18.3198 16.6396 18.0698H17.3096C17.6696 18.0698 17.9896 18.0898 18.1996 18.0998C18.4796 18.0998 18.7396 17.9598 18.8696 17.7098L18.9196 17.5998C18.8796 18.1398 18.3096 18.5798 17.6196 18.5598L17.6096 18.5698ZM18.8896 14.3598C18.8396 14.5498 18.7596 14.7398 18.6896 14.9198L18.3096 15.6898L17.6796 16.6798H17.3096C17.2496 16.6798 17.1996 16.6798 17.1296 16.6798C16.8796 16.6798 16.6696 16.6798 16.4796 16.6798L2.75957 16.6198L1.78957 14.7198C1.72957 14.5198 1.65957 14.3098 1.60957 14.1098C1.41957 13.2798 1.26957 12.6298 1.53957 12.0298C1.65957 11.7598 1.84957 11.5298 2.07957 11.3398C2.26957 11.1998 2.45957 11.1098 2.65957 11.0798C2.94957 11.0398 3.18957 11.1298 3.28957 11.1598C3.95957 11.3998 5.56957 11.4298 10.1496 11.4898C16.2996 11.5598 16.6696 11.3998 17.0696 11.2298C17.1896 11.1798 17.5096 11.0298 17.8496 11.0998C18.0096 11.1298 18.2496 11.2298 18.5196 11.4998C18.6596 11.6398 18.7796 11.8398 18.8796 12.0598C19.2596 12.9598 18.9996 13.9398 18.8896 14.3598Z" fill="#FFF"/>
<path d="M6.27369 14.8395L6.26538 16.2395L13.9752 16.2852L13.9836 14.8853L6.27369 14.8395Z" fill="#FFF"/>
<path d="M2.7702 14.8318L2.76116 16.2317L5.41111 16.2488L5.42015 14.8489L2.7702 14.8318Z" fill="#FFF"/>
<path d="M17.5296 11.8298L15.7196 12.0198C15.4296 12.0498 15.1896 12.2498 15.1196 12.5298L14.7996 13.7198C14.7396 13.9398 14.7996 14.1698 14.9296 14.3398C15.0596 14.4998 15.2596 14.5998 15.4696 14.5998C15.4896 14.5998 15.4996 14.5998 15.5196 14.5998L17.3096 14.4798C17.6096 14.4598 17.8596 14.2498 17.9296 13.9698L18.2696 12.7198C18.3296 12.4998 18.2696 12.2598 18.1296 12.0798C17.9796 11.8998 17.7496 11.8198 17.5296 11.8398V11.8298Z" fill="#FFF"/>
<path d="M17.6352 14.8556L14.9852 14.8727L14.9943 16.2727L17.6442 16.2556L17.6352 14.8556Z" fill="#FFF"/>
<path d="M13.8796 12.2798L6.47957 12.1798C6.25957 12.1498 6.04957 12.2798 5.91957 12.4498C5.78957 12.6198 5.73957 12.8498 5.79957 13.0598L6.20957 14.5398L7.54957 14.1698L7.38957 13.5898L12.8796 13.6698L12.6896 14.1998L13.9996 14.6698L14.5196 13.2198C14.5996 13.0098 14.5596 12.7698 14.4396 12.5898C14.3096 12.3998 14.0996 12.2898 13.8796 12.2898V12.2798Z" fill="#FFF"/>
</svg>
