<svg width="21" height="20" viewBox="0 0 21 20" fill="none" xmlns="http://www.w3.org/2000/svg">
<path d="M17.8 17.13V17.4L16.55 16.48C16.64 16.4 16.73 16.32 16.81 16.23C18.17 14.69 18.36 12.21 17.34 9.27C17.26 9.04 15.55 4.25 11.84 3.26V2.06H11.22V1.93H20.49V0.43H11.22V0H9.72V0.43H0.52L0.5 1.23L0.53 1.93H9.73V2.06H9.14V3.25C5.6 4.18 3.93 8.53 3.74 9.08C2.69 12.01 2.86 14.49 4.22 16.08C4.34 16.22 4.48 16.34 4.61 16.46L3.21 17.45V17.15H1.71L1.69 20H3.19V19.3L5.99 17.33C7.26 17.83 8.79 17.86 10.47 17.88C10.82 17.88 11.17 17.88 11.51 17.88C12.85 17.88 14.12 17.8 15.21 17.35L17.82 19.26V19.98H19.32L19.3 17.13H17.8ZM15.92 9.76C15.98 9.92 16.02 10.07 16.06 10.23C14.46 10.58 12.83 10.76 11.19 10.78L11.21 4.66C14.31 5.27 15.85 9.57 15.92 9.77V9.76ZM9.71 4.66L9.69 10.74C8.1 10.66 6.53 10.43 4.99 10.04C5.04 9.88 5.09 9.73 5.14 9.59C5.21 9.4 6.72 5.28 9.72 4.66H9.71ZM10.48 16.38C8.19 16.35 6.38 16.32 5.34 15.11C4.49 14.12 4.43 12.74 4.63 11.5C6.57 11.99 8.56 12.26 10.56 12.28C10.68 12.28 10.8 12.28 10.92 12.28C12.76 12.28 14.59 12.07 16.39 11.68C16.62 13.2 16.39 14.43 15.67 15.23C14.62 16.42 12.79 16.4 10.47 16.37L10.48 16.38Z" fill="#FFF"/>
<path d="M5.47 14.78L8.25 14.87V13.37L5.52 13.28L5.47 14.78Z" fill="#FFF"/>
<path d="M15.6664 13.4015L12.8864 13.4049L12.8882 14.9049L15.6682 14.9015L15.6664 13.4015Z" fill="#FFF"/>
</svg>
