<svg width="150" height="44" viewBox="0 0 150 44" fill="none" xmlns="http://www.w3.org/2000/svg">
<g clip-path="url(#clip0_12453_3896)">
<path d="M35.3356 7.93599C35.3356 9.10596 35.0629 10.2223 34.5197 11.2746C33.9764 12.3311 33.1235 13.2246 31.957 13.953C33.1235 14.7103 33.9764 15.6079 34.5197 16.6499C35.0629 17.694 35.3356 18.8 35.3356 19.97C35.3356 21.4288 35.0896 22.6607 34.5996 23.6656C34.1076 24.6684 33.4393 25.4814 32.5987 26.1087C31.7582 26.7318 30.7844 27.1899 29.6855 27.4768C28.5867 27.7636 27.4161 27.9059 26.1716 27.9059H0V0H26.1716C27.4161 0 28.5867 0.142377 29.6855 0.429195C30.7844 0.718077 31.7582 1.1741 32.5987 1.79932C33.4393 2.42248 34.1055 3.23754 34.5996 4.24243C35.0896 5.24526 35.3356 6.47507 35.3356 7.93599ZM4.66194 12.001H25.6284C27.1044 12.001 28.314 11.6543 29.2591 10.9651C30.2042 10.2759 30.6778 9.25452 30.6778 7.89884C30.6778 6.75157 30.2759 5.84366 29.4744 5.17923C28.6707 4.51687 27.4181 4.18465 25.7083 4.18465H4.66194V12.003V12.001ZM26.2516 23.3334C26.8461 23.3334 27.4079 23.257 27.9388 23.1002C28.4698 22.9413 28.9434 22.7081 29.3575 22.3945C29.7716 22.0829 30.0935 21.6909 30.3272 21.2245C30.5609 20.7541 30.6778 20.1949 30.6778 19.5428C30.6778 18.2924 30.2534 17.3803 29.4129 16.8067C28.5723 16.2351 27.5165 15.9483 26.2495 15.9483H4.66194V23.3334H26.2516Z" fill="white"/>
<path d="M70.1259 0V4.18259H44.5734V12.1557H70.1259V15.9463H44.5734V23.7234H70.1259V27.9059H39.9545V0H70.1259Z" fill="white"/>
<path d="M105.425 0H110.046V27.9059H103.834L79.3698 5.27621V27.9059H74.7488V0H80.9238L105.427 22.6297V0H105.425Z" fill="white"/>
<path d="M135.358 0C136.186 0 137.125 0.0474591 138.173 0.136187C139.223 0.229042 140.291 0.437449 141.377 0.763472C142.464 1.08743 143.52 1.5579 144.541 2.16867C145.564 2.78152 146.484 3.60276 147.3 4.63036C148.116 5.66001 148.77 6.93728 149.26 8.46216C149.752 9.98498 150 11.8173 150 13.9509C150 16.0845 149.754 17.9168 149.26 19.4438C148.77 20.9666 148.116 22.2418 147.3 23.2735C146.484 24.3032 145.566 25.1244 144.541 25.7352C143.52 26.348 142.464 26.8164 141.377 27.1404C140.291 27.4685 139.223 27.6748 138.173 27.7677C137.123 27.8605 136.184 27.9039 135.358 27.9039H129.3C128.472 27.9039 127.533 27.8585 126.485 27.7677C125.44 27.6748 124.372 27.4685 123.285 27.1404C122.199 26.8164 121.143 26.348 120.12 25.7352C119.097 25.1244 118.18 24.3032 117.364 23.2735C116.548 22.2439 115.894 20.9666 115.402 19.4438C114.91 17.9168 114.666 16.0886 114.666 13.9509C114.666 11.8132 114.91 9.98498 115.402 8.46216C115.894 6.93522 116.55 5.66001 117.364 4.63036C118.18 3.60276 119.097 2.78152 120.12 2.16867C121.143 1.5579 122.199 1.08743 123.285 0.763472C124.372 0.439512 125.44 0.229042 126.485 0.136187C127.535 0.0474591 128.474 0 129.3 0L135.358 0ZM135.241 23.647C137.261 23.647 138.897 23.3602 140.155 22.7845C141.41 22.2129 142.392 21.4639 143.108 20.5395C143.819 19.613 144.303 18.5771 144.561 17.4319C144.819 16.2847 144.951 15.125 144.951 13.953C144.951 12.7809 144.821 11.6213 144.561 10.4761C144.303 9.32881 143.819 8.30121 143.108 7.38711C142.394 6.47507 141.41 5.73223 140.155 5.15653C138.899 4.58496 137.261 4.29814 135.241 4.29814H129.417C127.398 4.29814 125.762 4.58496 124.507 5.15653C123.25 5.73223 122.266 6.47301 121.555 7.38711C120.841 8.29915 120.358 9.32674 120.097 10.4761C119.839 11.6213 119.708 12.783 119.708 13.953C119.708 15.1229 119.837 16.2847 120.097 17.4319C120.355 18.5771 120.839 19.613 121.555 20.5395C122.266 21.466 123.248 22.2129 124.507 22.7845C125.762 23.3602 127.398 23.647 129.417 23.647H135.241Z" fill="white"/>
<path d="M0.0123291 42.9071V37.0552H1.07633V41.9538H4.25605V42.9071H0.0123291Z" fill="white"/>
<path d="M6.44763 40.4578V37.0552H7.52804V40.2576C7.52804 41.3038 8.09182 41.8712 9.02256 41.8712C9.95331 41.8712 10.5335 41.3038 10.5335 40.2576V37.0552H11.5975V40.4578C11.5975 42.0301 10.6175 42.9999 9.02256 42.9999C7.42758 42.9999 6.44763 42.0301 6.44763 40.4578Z" fill="white"/>
<path d="M19.7773 42.9071H18.5308L16.9113 40.7178L15.2917 42.9071H14.0288L16.2552 39.8883L14.1539 37.0552H15.4167L16.9113 39.1124L18.4058 37.0552H19.6604L17.5755 39.9068L19.7773 42.9071Z" fill="white"/>
<path d="M22.1514 40.4578V37.0552H23.2318V40.2576C23.2318 41.3038 23.7956 41.8712 24.7263 41.8712C25.657 41.8712 26.2372 41.3038 26.2372 40.2576V37.0552H27.3012V40.4578C27.3012 42.0301 26.3213 42.9999 24.7263 42.9999C23.1313 42.9999 22.1514 42.0301 22.1514 40.4578Z" fill="white"/>
<path d="M33.9271 42.9071L32.2911 40.9509H31.3768V42.9071H30.3066V37.0552H32.7073C34.2674 37.0552 35.1982 37.765 35.1982 39.0113C35.1982 39.9976 34.6078 40.6414 33.5786 40.8663L35.2822 42.9071H33.9271ZM31.3768 38.0085V40.0059H32.6725C33.595 40.0059 34.126 39.7542 34.126 39.0278C34.126 38.3015 33.595 38.0085 32.6807 38.0085H31.3768Z" fill="white"/>
<path d="M42.6545 37.0552L40.3543 40.7673V42.9071H39.2739V40.7425L36.9736 37.0552H38.1524L39.8212 39.8388L41.4736 37.0552H42.6524H42.6545Z" fill="white"/>
<path d="M53.6924 42.9071L53.227 41.8279H50.1375L49.6721 42.9071H48.5425L51.1503 37.0552H52.2225L54.8384 42.9071H53.6924ZM50.5434 40.8849H52.8191L51.6813 38.2355L50.5434 40.8849Z" fill="white"/>
<path d="M60.9906 37.0552V38.0085H59.0799V42.9071H57.9995V38.0085H56.097V37.0552H60.9886H60.9906Z" fill="white"/>
<path d="M72.6742 37.0552L70.374 40.7673V42.9071H69.2936V40.7425L66.9933 37.0552H68.1722L69.8409 39.8388L71.4933 37.0552H72.6721H72.6742Z" fill="white"/>
<path d="M74.4188 39.9812C74.4188 38.2335 75.7145 36.9624 77.5083 36.9624C79.3022 36.9624 80.5896 38.2252 80.5896 39.9812C80.5896 41.7372 79.294 43 77.5001 43C75.7063 43 74.4188 41.7372 74.4188 39.9812ZM79.46 39.9812C79.46 38.7514 78.6543 37.9405 77.5083 37.9405C76.3623 37.9405 75.5484 38.7514 75.5484 39.9812C75.5484 41.211 76.3541 42.022 77.5083 42.022C78.6625 42.022 79.46 41.211 79.46 39.9812Z" fill="white"/>
<path d="M83.3286 40.4578V37.0552H84.409V40.2576C84.409 41.3038 84.9727 41.8712 85.9035 41.8712C86.8342 41.8712 87.4144 41.3038 87.4144 40.2576V37.0552H88.4784V40.4578C88.4784 42.0301 87.4985 42.9999 85.9035 42.9999C84.3085 42.9999 83.3286 42.0301 83.3286 40.4578Z" fill="white"/>
<path d="M95.1044 42.9071L93.4684 40.9509H92.554V42.9071H91.4839V37.0552H93.8846C95.4447 37.0552 96.3754 37.765 96.3754 39.0113C96.3754 39.9976 95.785 40.6414 94.7559 40.8663L96.4595 42.9071H95.1044ZM92.554 38.0085V40.0059H93.8497C94.7723 40.0059 95.3032 39.7542 95.3032 39.0278C95.3032 38.3015 94.7723 38.0085 93.8579 38.0085H92.554Z" fill="white"/>
<path d="M102.999 42.1641L103.489 41.3367C104.104 41.7638 104.777 42.0217 105.498 42.0217C106.22 42.0217 106.612 41.7205 106.612 41.3367C106.612 40.8353 106.22 40.6846 105.308 40.4845C103.979 40.1997 103.165 39.7066 103.165 38.6625C103.165 37.5585 104.145 36.9663 105.416 36.9663C106.238 36.9663 106.903 37.1995 107.534 37.6596L106.96 38.4458C106.554 38.1528 105.972 37.9444 105.357 37.9444C104.684 37.9444 104.293 38.1693 104.293 38.6707C104.293 39.0978 104.65 39.3228 105.597 39.5312C107.018 39.8407 107.739 40.2245 107.739 41.2541C107.739 42.3416 106.776 43.0019 105.431 43.0019C104.475 43.0019 103.612 42.6676 102.997 42.1662L102.999 42.1641Z" fill="white"/>
<path d="M111.546 41.9538H115.126V42.9071H110.49V37.0552H115.042V38.0085H111.544V39.4137H114.675V40.367H111.544V41.9558L111.546 41.9538Z" fill="white"/>
<path d="M121.596 42.9071L119.96 40.9509H119.048V42.9071H117.975V37.0552H120.376C121.938 37.0552 122.867 37.765 122.867 39.0113C122.867 39.9976 122.276 40.6414 121.247 40.8663L122.951 42.9071H121.598H121.596ZM119.045 38.0085V40.0059H120.341C121.264 40.0059 121.795 39.7542 121.795 39.0278C121.795 38.3015 121.264 38.0085 120.349 38.0085H119.045Z" fill="white"/>
<path d="M127.199 42.9071L124.665 37.0552H125.811L127.713 41.636H127.746L129.657 37.0552H130.786L128.261 42.9071H127.197H127.199Z" fill="white"/>
<path d="M133.361 42.9071V37.0552H134.434V42.9071H133.361Z" fill="white"/>
<path d="M137.355 39.9812C137.355 38.2603 138.659 36.9624 140.412 36.9624C141.359 36.9624 142.121 37.2884 142.712 37.9075L142.005 38.5843C141.615 38.1654 141.125 37.9322 140.453 37.9322C139.315 37.9322 138.476 38.7679 138.476 39.973C138.476 41.178 139.331 42.0302 140.444 42.0302C141.076 42.0302 141.615 41.797 142.023 41.3617L142.728 42.022C142.173 42.6575 141.367 43 140.444 43C138.683 43 137.355 41.7042 137.355 39.9812Z" fill="white"/>
<path d="M146.406 41.9538H149.986V42.9071H145.35V37.0552H149.902V38.0085H146.404V39.4137H149.537V40.367H146.404V41.9558L146.406 41.9538Z" fill="white"/>
</g>
<defs>
<clipPath id="clip0_12453_3896">
<rect width="150" height="43" fill="white"/>
</clipPath>
</defs>
</svg>
