<svg width="25" height="24" viewBox="0 0 25 24" fill="none" xmlns="http://www.w3.org/2000/svg">
<g clip-path="url(#clip0_13069_2995)">
<path fill-rule="evenodd" clip-rule="evenodd" d="M12.489 1.7002C11.9007 1.7002 11.2061 1.84368 10.6961 1.97105C10.433 2.03674 10.2032 2.10228 10.0389 2.15147C9.97588 2.17034 9.92222 2.18688 9.87973 2.2002H7.78903V3.1999H5.49902V4.5999H7.78903V5.6002H9.19908L9.4944 5.89551L8.01255 8.36526L4.2382 10.2524C3.6956 10.4377 2.96988 10.7639 2.44222 11.4879C2.05403 12.0205 1.68714 12.6045 1.81496 13.4992C1.86899 13.8774 2.05935 14.1902 2.24937 14.4231C2.44299 14.6604 2.67357 14.8602 2.87966 15.0161C2.99226 15.1012 3.10276 15.1771 3.20389 15.2425C3.18292 15.4086 3.17408 15.5772 3.17258 15.7349C3.16863 16.1508 3.21555 16.6291 3.32994 17.0744C3.48317 17.6709 3.84457 18.1794 4.23924 18.5898C4.63797 19.0043 5.10854 19.3578 5.54455 19.6411C5.98305 19.9259 6.4037 20.1507 6.71362 20.3041C6.86918 20.381 6.99835 20.4407 7.08984 20.4817C7.13397 20.5014 7.16942 20.5169 7.19496 20.5278C7.21865 20.5414 7.25201 20.5604 7.29425 20.584C7.38206 20.6332 7.50842 20.7025 7.66608 20.7852C7.98086 20.9505 8.42325 21.1708 8.9348 21.3918C9.93316 21.823 11.2891 22.2986 12.488 22.3002C13.691 22.3018 15.0522 21.826 16.0545 21.3941C16.5681 21.1728 17.0123 20.9519 17.3284 20.7862C17.4867 20.7032 17.6136 20.6337 17.7017 20.5844C17.7443 20.5606 17.7779 20.5416 17.8017 20.5279C17.8273 20.5169 17.8628 20.5015 17.907 20.4817C17.9985 20.4407 18.1276 20.381 18.2832 20.3041C18.5931 20.1507 19.0138 19.9259 19.4523 19.6411C19.8883 19.3578 20.3588 19.0043 20.7576 18.5898C21.1522 18.1794 21.5136 17.6709 21.6669 17.0744C21.7813 16.6291 21.8282 16.1508 21.8242 15.7349C21.8227 15.5772 21.8139 15.4086 21.7929 15.2425C21.894 15.1771 22.0045 15.1012 22.1171 15.0161C22.3232 14.8602 22.5538 14.6604 22.7474 14.4231C22.9375 14.1902 23.1278 13.8774 23.1818 13.4992C23.3097 12.6045 22.9428 12.0205 22.5546 11.4879C22.0269 10.7639 21.3012 10.4377 20.7586 10.2524L16.9843 8.36526L15.4954 5.8838L15.779 5.6002H17.189V4.5999H19.499V3.1999H17.189V2.2002H15.0983C15.0558 2.18688 15.0022 2.17034 14.9392 2.15147C14.7748 2.10228 14.545 2.03674 14.282 1.97105C13.7719 1.84368 13.0773 1.7002 12.489 1.7002ZM12.0949 7.10019L12.1539 7.11961L12.1534 7.12096L12.1515 7.12695L12.1431 7.1527C12.1357 7.17585 12.1245 7.2108 12.1102 7.25646C12.0816 7.34779 12.0404 7.48181 11.9911 7.64989C11.8924 7.98642 11.7617 8.45744 11.6341 8.9942C11.3746 10.086 11.1449 11.3815 11.1885 12.3694C11.2122 12.9074 11.3283 13.6145 11.4456 14.2099C11.5032 14.5028 11.5594 14.7598 11.601 14.9434C11.6139 15.0003 11.6254 15.05 11.6351 15.0914C11.9282 15.1625 12.2138 15.2002 12.489 15.2002C12.7643 15.2002 13.0498 15.1625 13.343 15.0914C13.3526 15.05 13.3641 15.0003 13.377 14.9434C13.4187 14.7598 13.4748 14.5028 13.5325 14.2099C13.6497 13.6145 13.7659 12.9074 13.7896 12.3694C13.8331 11.3815 13.6035 10.086 13.3439 8.9942C13.2164 8.45744 13.0857 7.98642 12.987 7.64989C12.9377 7.48181 12.8965 7.34779 12.8679 7.25646C12.8536 7.2108 12.8424 7.17585 12.8349 7.1527L12.8266 7.12695L12.8242 7.11974L12.8832 7.10019H12.0949ZM10.6938 7.10019H10.4043L9.00329 9.43513L5.95704 10.9583C6.02498 11.0351 6.1004 11.1192 6.18276 11.2094C6.59844 11.6645 7.1867 12.2695 7.87876 12.8724C8.54453 13.4523 9.2933 14.0188 10.0657 14.4487C9.94767 13.8451 9.81792 13.0684 9.78982 12.431C9.73723 11.2379 10.0075 9.78337 10.2721 8.67046C10.4065 8.10483 10.5439 7.60979 10.6477 7.25585C10.6639 7.20047 10.6794 7.1485 10.6938 7.10019ZM4.65237 11.5906C4.22947 11.7391 3.8432 11.9426 3.57362 12.3125C3.23445 12.7779 3.15406 12.9734 3.20089 13.3012C3.20544 13.333 3.23186 13.4127 3.33408 13.538C3.4327 13.6589 3.56979 13.7827 3.72406 13.8994C3.87573 14.0141 4.02731 14.1093 4.14226 14.1762C4.19912 14.2093 4.2455 14.2346 4.27648 14.2511C4.29193 14.2593 4.30344 14.2652 4.31039 14.2688L4.31704 14.2721L4.31798 14.2726L4.78086 14.5002C4.87924 14.5454 4.99117 14.5961 5.11524 14.6513C5.63152 14.8811 6.35525 15.1875 7.184 15.4935C8.8645 16.1141 10.8908 16.7002 12.489 16.7002C14.0872 16.7002 16.1136 16.1141 17.7941 15.4935C18.6228 15.1875 19.3465 14.8811 19.8628 14.6513C20.1207 14.5365 20.3262 14.4411 20.4665 14.3748C20.5366 14.3416 20.5904 14.3158 20.6261 14.2984L20.6466 14.2885L20.6788 14.2726L20.6798 14.2721L20.6864 14.2688C20.6934 14.2652 20.7049 14.2593 20.7203 14.2511C20.7513 14.2346 20.7977 14.2093 20.8545 14.1762C20.9695 14.1093 21.1211 14.0141 21.2727 13.8994C21.427 13.7827 21.5641 13.6589 21.6627 13.538C21.7649 13.4127 21.7914 13.333 21.7959 13.3012C21.8427 12.9734 21.7624 12.7779 21.4232 12.3125C21.1505 11.9384 20.7585 11.7345 20.33 11.5855C20.21 11.7269 20.0405 11.922 19.829 12.1535C19.3885 12.6359 18.7618 13.2809 18.0189 13.928C17.278 14.5733 16.4074 15.2333 15.4785 15.7349C14.5548 16.2336 13.5286 16.6002 12.489 16.6002C11.4495 16.6002 10.4232 16.2336 9.49951 15.7349C8.57061 15.2333 7.70001 14.5733 6.95919 13.928C6.21628 13.2809 5.58956 12.6359 5.14901 12.1535C4.9401 11.9248 4.77209 11.7315 4.65237 11.5906ZM19.0268 10.9518C18.9573 11.0303 18.88 11.1167 18.7953 11.2094C18.3796 11.6645 17.7914 12.2695 17.0993 12.8724C16.4335 13.4523 15.6848 14.0188 14.9123 14.4487C15.0304 13.8451 15.1601 13.0684 15.1882 12.431C15.2408 11.2379 14.9705 9.78337 14.706 8.67046C14.5716 8.10483 14.4342 7.60979 14.3304 7.25585C14.3141 7.20047 14.2987 7.1485 14.2842 7.10019H14.5925L15.9935 9.43513L19.0268 10.9518ZM20.4215 15.9351C19.8854 16.1735 19.1371 16.49 18.279 16.8069C17.3292 17.1576 16.2182 17.519 15.0984 17.7704L15.0493 17.9018C14.9889 18.0632 14.9037 18.2884 14.8047 18.5439C14.6081 19.0515 14.3523 19.6918 14.1265 20.1894C14.0566 20.3435 13.9771 20.5114 13.8942 20.6822C14.4365 20.5349 14.9914 20.3277 15.5005 20.1084C15.974 19.9043 16.3855 19.6997 16.6784 19.5462C16.8245 19.4696 16.9404 19.4061 17.0189 19.3623C17.0581 19.3404 17.0879 19.3234 17.1074 19.3122L17.1289 19.2998L17.1336 19.2971L17.1768 19.2717L17.2219 19.2531L17.2267 19.2511L17.2475 19.2423C17.2667 19.234 17.2963 19.2212 17.3348 19.2039C17.412 19.1694 17.5248 19.1173 17.6624 19.0492C17.9387 18.9125 18.3091 18.7142 18.6896 18.467C19.0726 18.2182 19.449 17.9307 19.7485 17.6193C20.0521 17.3037 20.2402 17.0013 20.3109 16.726C20.3752 16.4756 20.4114 16.1968 20.4215 15.9351ZM11.0818 20.6779C10.9997 20.5086 10.9209 20.3422 10.8516 20.1894C10.6258 19.6918 10.3699 19.0515 10.1734 18.5439C10.0744 18.2884 9.9892 18.0632 9.92872 17.9018L9.87961 17.7704C8.75983 17.519 7.64882 17.1576 6.69902 16.8069C5.8511 16.4937 5.11038 16.181 4.57566 15.9435C4.58622 16.2028 4.62227 16.4783 4.68591 16.726C4.75663 17.0013 4.9447 17.3037 5.24827 17.6193C5.54778 17.9307 5.92422 18.2182 6.30722 18.467C6.68773 18.7142 7.05811 18.9125 7.33445 19.0492C7.47202 19.1173 7.5848 19.1694 7.66197 19.2039C7.70052 19.2212 7.73008 19.234 7.74929 19.2423L7.77014 19.2511L7.77438 19.2529L7.82019 19.2717L7.86264 19.2967L7.86816 19.2999L7.88951 19.3123C7.90896 19.3235 7.93865 19.3404 7.9777 19.3622C8.05584 19.4059 8.17124 19.4692 8.31678 19.5456C8.60841 19.6987 9.01824 19.9028 9.4899 20.1065C9.99437 20.3244 10.544 20.5304 11.0818 20.6779ZM13.6991 5.7002L15.1991 4.2002H15.789V3.6002H14.8757L14.7685 3.56455L14.766 3.56373L14.7554 3.56027L14.7107 3.54592C14.6709 3.53329 14.6119 3.5149 14.5377 3.49267C14.3888 3.44811 14.1803 3.38865 13.9428 3.32934C13.4518 3.20671 12.8964 3.1002 12.489 3.1002C12.0817 3.1002 11.5263 3.20671 11.0353 3.32934C10.7978 3.38865 10.5892 3.44811 10.4404 3.49267C10.3661 3.5149 10.3072 3.53329 10.2674 3.54592L10.2226 3.56027L10.2121 3.56373L10.2099 3.56445L10.1023 3.6002H9.18903V4.2002H9.77898L11.279 5.7002H13.6991ZM13.4975 18.0427C13.1534 18.0798 12.8156 18.1002 12.489 18.1002C12.1624 18.1002 11.8247 18.0798 11.4806 18.0427C11.6751 18.5449 11.9184 19.1524 12.1265 19.611C12.23 19.8392 12.3587 20.1052 12.489 20.3674C12.6194 20.1052 12.748 19.8392 12.8516 19.611C13.0596 19.1524 13.303 18.5449 13.4975 18.0427Z" fill="#FFF"/>
<path d="M-2.5 22.9876C-1.17137 22.9866 0.156889 22.6653 1.24225 22.0237C3.41635 23.309 6.56505 23.309 8.73915 22.0237C9.75873 22.6292 10.9732 22.9629 12.2327 23H12.4726C13.7471 22.9506 14.9616 22.6169 15.9662 22.0113C18.1403 23.2966 21.289 23.2966 23.4631 22.0113C24.6287 22.7004 26.0745 23.0201 27.5 22.9702V21.2407C26.3259 21.3157 25.1183 20.9917 24.2577 20.2688C23.8379 19.9104 23.0282 19.9104 22.6084 20.2688C21.0341 21.5788 18.3352 21.5788 16.7758 20.2688C16.356 19.9104 15.5463 19.9104 15.1265 20.2688C14.3768 20.8991 13.3872 21.2451 12.3227 21.2698C11.2731 21.2451 10.2835 20.8991 9.51883 20.2688C9.099 19.9104 8.28934 19.9104 7.86951 20.2688C6.29516 21.5788 3.59628 21.5788 2.03692 20.2688C1.61709 19.9104 0.80743 19.9104 0.387603 20.2688C-0.391129 20.9168 -1.445 21.2442 -2.5 21.2512V22.9876Z" fill="#FFF"/>
</g>
<defs>
<clipPath id="clip0_13069_2995">
<rect width="24" height="24" fill="white" transform="translate(0.5)"/>
</clipPath>
</defs>
</svg>
