<svg width="21" height="20" viewBox="0 0 21 20" fill="none" xmlns="http://www.w3.org/2000/svg">
<path d="M17.8106 17.5798C17.7106 17.5798 17.6106 17.6098 17.5106 17.6498L20.2006 12.4398C20.3706 12.1198 20.2606 11.7198 19.9506 11.5298C19.2606 11.0998 18.5406 10.6998 17.8106 10.3198V6.67977C17.8106 6.36977 17.6106 6.09977 17.3106 6.00977C16.3406 5.72977 15.3506 5.51977 14.3606 5.35977C14.5206 5.13977 14.7306 5.04977 14.8506 5.00977C15.1406 4.91977 15.3406 4.63977 15.3406 4.32977L15.3106 2.53977C15.3106 2.15977 14.9906 1.84977 14.6106 1.84977H13.6506V0.709766C13.6506 0.519766 13.5806 0.349766 13.4506 0.219766C13.3206 0.0897656 13.1406 0.00976562 12.9606 0.00976562H10.4006H7.84057C7.65057 0.00976562 7.48057 0.0897656 7.35057 0.219766C7.22057 0.349766 7.15057 0.529766 7.15057 0.709766V1.84977H6.13057C5.75057 1.84977 5.44057 2.15977 5.43057 2.53977L5.40057 4.32977C5.40057 4.63977 5.59057 4.90977 5.89057 5.00977C6.00057 5.04977 6.22057 5.13977 6.38057 5.35977C6.38057 5.36977 6.39057 5.37977 6.40057 5.39977C5.44057 5.55977 4.48057 5.76977 3.54057 6.04977C3.25057 6.13977 3.04057 6.40977 3.04057 6.70977L3.01057 10.2898C2.27057 10.6498 1.55057 11.0398 0.850567 11.4598C0.530567 11.6498 0.420567 12.0498 0.580567 12.3698L3.20057 17.6198C3.15057 17.6098 3.10057 17.5898 3.05057 17.5898C2.86057 17.5898 2.69057 17.6598 2.56057 17.7998C2.03057 18.3298 1.33057 18.6198 0.590567 18.6198V20.0198C1.49057 20.0198 2.34057 19.7398 3.05057 19.2198C3.76057 19.7398 4.61057 20.0198 5.51057 20.0298C6.41057 20.0298 7.26057 19.7498 7.97057 19.2198C8.68057 19.7398 9.53057 20.0198 10.4306 20.0298C11.3306 20.0298 12.1806 19.7498 12.8906 19.2198C13.6006 19.7398 14.4506 20.0198 15.3506 20.0298C16.2506 20.0298 17.1006 19.7498 17.8106 19.2198C18.5206 19.7398 19.3706 20.0198 20.2706 20.0198V18.6198C19.5306 18.6198 18.8306 18.3298 18.3006 17.7998C18.1706 17.6698 17.9906 17.5898 17.8106 17.5898V17.5798ZM10.4006 1.39977H12.2506V1.84977H10.3506H8.53057V1.39977H10.3906H10.4006ZM6.80057 3.24977H10.3606H13.9206V3.88977C13.6906 4.02977 13.4306 4.22977 13.2206 4.52977C13.0706 4.73977 12.9706 4.94977 12.9006 5.15977C12.1006 5.07977 11.2906 5.01977 10.4806 5.01977H10.4606C9.58057 5.01977 8.70057 5.07977 7.82057 5.17977C7.75057 4.95977 7.65057 4.73977 7.49057 4.51977C7.27057 4.21977 7.02057 4.01977 6.79057 3.87977V3.22977L6.80057 3.24977ZM9.68057 18.4998C9.22057 18.3698 8.80057 18.1398 8.45057 17.7898C8.32057 17.6598 8.14057 17.5798 7.96057 17.5798C7.78057 17.5798 7.60057 17.6498 7.47057 17.7898C6.94057 18.3198 6.24057 18.6098 5.50057 18.6098C5.41057 18.6098 5.32057 18.5898 5.23057 18.5798L3.23057 14.5698C3.77057 14.2398 4.33057 13.9298 4.90057 13.6498C5.59057 13.3198 6.30057 13.0198 7.02057 12.7698L6.57057 11.4498C5.80057 11.7098 5.03057 12.0298 4.29057 12.3898C3.71057 12.6698 3.15057 12.9798 2.60057 13.3098L2.10057 12.3198C3.30057 11.6398 4.55057 11.0398 5.83057 10.5298C7.08057 10.0298 8.37057 9.61977 9.67057 9.27977V18.4798L9.68057 18.4998ZM10.2206 7.70977C8.55057 8.08977 6.90057 8.60977 5.32057 9.24977C5.01057 9.36977 4.71057 9.51976 4.41057 9.65977L4.43057 7.23977C6.40057 6.69977 8.43057 6.42977 10.4706 6.42977H10.4906C12.5006 6.42977 14.4906 6.68977 16.4206 7.20977V9.67977C16.1106 9.53977 15.8106 9.37977 15.5006 9.25977C13.9006 8.59977 12.2206 8.07977 10.5306 7.71977C10.4306 7.69977 10.3306 7.69977 10.2306 7.71977L10.2206 7.70977ZM15.3406 18.6098C14.6006 18.6098 13.9006 18.3198 13.3706 17.7898C13.2406 17.6598 13.0606 17.5798 12.8806 17.5798C12.7006 17.5798 12.5206 17.6498 12.3906 17.7898C12.0206 18.1598 11.5706 18.3998 11.0806 18.5198V9.28977C12.4106 9.61977 13.7206 10.0298 14.9706 10.5398C16.2406 11.0598 17.4806 11.6798 18.6606 12.3798L18.1506 13.3698C17.5806 13.0198 16.9906 12.6898 16.3906 12.4098C15.6506 12.0498 14.8906 11.7398 14.1106 11.4698L13.6506 12.7898C14.3706 13.0398 15.0806 13.3298 15.7706 13.6698C16.3506 13.9498 16.9306 14.2698 17.4906 14.6198L15.4306 18.6098C15.4306 18.6098 15.3606 18.6198 15.3206 18.6198L15.3406 18.6098Z" fill="#FFF"/>
</svg>
